<svg xmlns="http://www.w3.org/2000/svg" width="307" height="307" viewBox="0 0 307 307">
  <g fill="none" fill-rule="evenodd">
    <path fill="#142E4D" d="M2.50355159,155.154745 C2.50355159,239.258173 70.7910659,307.436278 155.029014,307.436278 C239.269652,307.436278 307.555373,239.258173 307.555373,155.154745 C307.555373,71.0522132 239.269652,2.87590176 155.029014,2.87590176 C70.7910659,2.87590176 2.50355159,71.0522132 2.50355159,155.154745" transform="matrix(1 0 0 -1 0 310.312)"/>
    <path fill="#FFFFFF" d="M43.2036132,155.138064 C43.2036132,217.422419 92.6601814,266.887058 154.987582,266.887058 C217.314983,266.887058 264.924149,217.669935 264.924149,155.384684 C264.924149,93.0967422 217.167908,44.7961455 154.841404,44.7961455 C92.5149002,44.7961455 43.2036132,92.8528134 43.2036132,155.138064" transform="matrix(1 0 0 -1 0 311.683)"/>
    <path fill="#76CBEF" d="M166.81804,258.089604 C161.178083,259.192664 160.226581,265.67023 148.257927,265.459482 C141.221656,264.918714 138.663094,261.018543 134.673244,259.294002 C142.077201,257.727297 141.875421,257.982885 150.313386,257.248408 C160.648973,257.036764 166.81804,258.089604 166.81804,258.089604" transform="matrix(1 0 0 -1 0 522.685)"/>
    <path fill="#76CBEF" d="M166.81804,258.089604 C161.178083,259.192664 160.226581,265.67023 148.257927,265.459482 C141.221656,264.918714 138.032646,260.584493 134.041002,258.858159 C141.445856,257.293248 141.875421,257.982885 150.313386,257.248408 C160.648973,257.036764 166.81804,258.089604 166.81804,258.089604" transform="matrix(1 0 0 -1 0 522.685)"/>
    <path fill="#76CBEF" d="M254.728641,220.751595 C253.780727,218.761603 250.910079,212.632891 250.215061,211.693944 C247.874421,212.391653 246.538193,212.618542 243.863944,212.824806 C223.455532,214.395097 212.007916,193.518557 190.598679,196.921005 C162.588117,201.375397 170.161569,213.596051 146.884302,214.309902 C126.441812,214.018443 125.663392,198.82939 101.258852,196.921005 C82.2010158,195.429632 71.9712509,212.711809 58.3776,211.153176 C56.9059559,213.242713 54.5787674,218.07914 53.3967888,221.557816 C54.0218564,221.669019 52.9241767,221.477104 53.5124756,221.521944 C73.9181975,223.090442 82.995578,205.373318 103.169926,206.673674 C121.541712,207.86193 124.121798,223.813261 146.884302,224.489446 C168.685441,224.024008 172.237654,208.031425 190.598679,206.673674 C211.878778,205.106969 223.55687,223.972891 243.963489,222.405289 C248.138976,222.08603 254.728641,220.751595 254.728641,220.751595" transform="matrix(1 0 0 -1 0 421.035)"/>
    <path fill="#76CBEF" d="M254.728641,220.751595 C253.780727,218.761603 250.910079,212.632891 250.215061,211.693944 C247.874421,212.391653 246.538193,212.618542 243.863944,212.824806 C223.455532,214.395097 212.007916,193.518557 190.598679,196.921005 C162.588117,201.375397 170.161569,213.596051 146.884302,214.309902 C126.441812,214.018443 125.663392,198.82939 101.258852,196.921005 C82.2010158,195.429632 71.9712509,212.711809 58.3776,211.153176 C56.9059559,213.242713 54.5787674,218.07914 53.3967888,221.557816 C54.0218564,221.669019 52.9241767,221.477104 53.5124756,221.521944 C73.9181975,223.090442 82.995578,205.373318 103.169926,206.673674 C121.541712,207.86193 124.121798,223.813261 146.884302,224.489446 C168.685441,224.024008 172.237654,208.031425 190.598679,206.673674 C211.878778,205.106969 223.55687,223.972891 243.963489,222.405289 C248.138976,222.08603 254.728641,220.751595 254.728641,220.751595" transform="matrix(1 0 0 -1 0 421.035)"/>
    <path fill="#76CBEF" d="M49.4120501,188.583463 C51.419082,189.182523 52.445018,189.274893 54.1265126,189.404929 C74.5322345,190.97253 83.6105118,173.2572 103.781273,174.559349 C122.155749,175.744915 124.051578,191.722252 147.496546,192.374224 C171.408745,191.722252 172.568303,176.81031 190.57599,175.408616 C212.324217,173.717256 223.813982,191.98322 244.26275,191.102566 C247.374636,190.967149 251.631732,189.837185 258.406137,187.17011 C259.627575,190.37885 260.759333,196.422366 260.759333,196.422366 C251.104415,200.236444 246.636572,200.910836 243.240401,201.045355 C224.235476,201.804046 212.428245,183.305811 191.212716,184.741584 C172.840033,185.981854 171.620389,201.410352 147.496546,202.552871 C122.997842,201.515277 122.155749,185.922665 103.781273,184.741584 C83.6105118,183.438537 74.5322345,201.154765 54.1265126,199.584473 C51.8468543,199.408701 49.9241212,199.203334 47.0364345,198.224032 C47.0364345,198.224032 48.5206337,190.828146 49.4120501,188.583463" transform="matrix(1 0 0 -1 0 377.044)"/>
    <path fill="#76CBEF" d="M49.4120501,188.583463 C51.419082,189.182523 52.445018,189.274893 54.1265126,189.404929 C74.5322345,190.97253 83.6105118,173.2572 103.781273,174.559349 C122.155749,175.744915 124.051578,191.722252 147.496546,192.374224 C171.408745,191.722252 172.568303,176.81031 190.57599,175.408616 C212.324217,173.717256 223.813982,191.98322 244.26275,191.102566 C247.374636,190.967149 251.631732,189.837185 258.406137,187.17011 C259.627575,190.37885 260.759333,196.422366 260.759333,196.422366 C251.104415,200.236444 246.636572,200.910836 243.240401,201.045355 C224.235476,201.804046 212.428245,183.305811 191.212716,184.741584 C172.840033,185.981854 171.620389,201.410352 147.496546,202.552871 C122.997842,201.515277 122.155749,185.922665 103.781273,184.741584 C83.6105118,183.438537 74.5322345,201.154765 54.1265126,199.584473 C51.8468543,199.408701 49.9241212,199.203334 47.0364345,198.224032 C47.0364345,198.224032 48.5206337,190.828146 49.4120501,188.583463" transform="matrix(1 0 0 -1 0 377.044)"/>
    <path fill="#76CBEF" d="M45.2345897,165.122906 C44.7377641,170.87855 44.7377641,175.323076 44.7377641,175.323076 C47.624554,176.301482 51.8475717,176.641368 54.1263332,176.81714 C74.5311583,178.385638 83.6103325,160.671205 103.781094,161.972457 C122.154673,163.158023 121.625563,179.063617 147.731327,179.800784 C172.569917,179.485112 172.925946,163.252187 191.211639,161.972457 C211.907924,160.522336 221.700051,178.367702 242.142542,177.346251 C248.508905,177.028784 254.078912,176.69966 263.313232,172.778863 C263.313232,172.778863 263.129388,166.842066 262.584136,162.712315 C252.187567,166.743418 247.658741,166.530877 242.142542,166.956856 C221.73413,168.524457 211.67924,151.416258 190.996408,152.641283 C173.091853,153.703988 170.880352,168.111034 147.731327,168.216856 C124.158118,167.37297 124.03167,154.275248 103.781094,151.79381 C83.7197417,149.335689 74.5311583,168.206094 54.1263332,166.637596 C51.8475717,166.463617 48.1231732,166.102208 45.2345897,165.122906" transform="matrix(1 0 0 -1 0 331.373)"/>
    <path fill="#76CBEF" d="M45.2345897,165.122906 C44.7377641,170.87855 44.7377641,175.323076 44.7377641,175.323076 C47.624554,176.301482 51.8475717,176.641368 54.1263332,176.81714 C74.5311583,178.385638 83.6103325,160.671205 103.781094,161.972457 C122.154673,163.158023 121.625563,179.063617 147.731327,179.800784 C172.569917,179.485112 172.925946,163.252187 191.211639,161.972457 C211.907924,160.522336 221.700051,178.367702 242.142542,177.346251 C248.508905,177.028784 254.078912,176.69966 263.313232,172.778863 C263.313232,172.778863 263.129388,166.842066 262.584136,162.712315 C252.187567,166.743418 247.658741,166.530877 242.142542,166.956856 C221.73413,168.524457 211.67924,151.416258 190.996408,152.641283 C173.091853,153.703988 170.880352,168.111034 147.731327,168.216856 C124.158118,167.37297 124.03167,154.275248 103.781094,151.79381 C83.7197417,149.335689 74.5311583,168.206094 54.1263332,166.637596 C51.8475717,166.463617 48.1231732,166.102208 45.2345897,165.122906" transform="matrix(1 0 0 -1 0 331.373)"/>
    <path fill="#76CBEF" d="M45.5962679,143.267337 C48.4857483,144.247536 51.8406664,144.82328 54.1266023,144.872603 C74.285705,145.295892 83.6097047,128.302483 103.782259,129.603735 C122.155839,130.788405 125.685632,147.5056 147.7307,147.5056 C171.725404,146.508361 172.985404,131.403607 191.211908,130.027921 C212.160193,128.446867 222.526271,144.872603 242.988491,144.872603 C248.716334,144.872603 253.47474,144.581144 262.812191,141.187664 C262.631935,145.302169 261.702853,150.167294 261.349515,151.975237 C250.815736,155.425215 249.864234,155.243165 245.052918,155.425215 C224.599666,156.19377 213.003182,137.992376 191.211908,139.784177 C172.859852,141.289899 173.62482,156.878027 147.496636,157.596361 C122.574643,156.301386 122.155839,140.966155 103.782259,139.784177 C83.6097047,138.482027 74.5323242,156.196461 54.1266023,154.627963 C51.8478407,154.45219 49.9484244,153.995721 47.0598409,153.015521 C46.1406238,149.38439 45.5962679,143.267337 45.5962679,143.267337" transform="matrix(1 0 0 -1 0 287.129)"/>
    <path fill="#76CBEF" d="M45.5962679,143.267337 C48.4857483,144.247536 51.8406664,144.82328 54.1266023,144.872603 C74.285705,145.295892 83.6097047,128.302483 103.782259,129.603735 C122.155839,130.788405 125.685632,147.5056 147.7307,147.5056 C171.725404,146.508361 172.985404,131.403607 191.211908,130.027921 C212.160193,128.446867 222.526271,144.872603 242.988491,144.872603 C248.716334,144.872603 253.47474,144.581144 262.812191,141.187664 C262.631935,145.302169 261.702853,150.167294 261.349515,151.975237 C250.815736,155.425215 249.864234,155.243165 245.052918,155.425215 C224.599666,156.19377 213.003182,137.992376 191.211908,139.784177 C172.859852,141.289899 173.62482,156.878027 147.496636,157.596361 C122.574643,156.301386 122.155839,140.966155 103.782259,139.784177 C83.6097047,138.482027 74.5323242,156.196461 54.1266023,154.627963 C51.8478407,154.45219 49.9484244,153.995721 47.0598409,153.015521 C46.1406238,149.38439 45.5962679,143.267337 45.5962679,143.267337" transform="matrix(1 0 0 -1 0 287.129)"/>
    <path fill="#76CBEF" d="M234.962336,231.92507 C215.001425,225.903077 216.034536,219.436273 197.149782,218.363703 C171.411704,216.89475 166.708003,234.185895 147.496815,234.642365 C127.794182,234.059447 123.287776,216.66786 98.8455705,218.003191 C91.6084177,218.396885 90.6120761,219.934892 85.7065958,220.83976 C76.5332579,228.18991 67.63434,238.375731 68.2172581,238.298607 C85.0788378,236.156159 83.6098841,225.705782 103.781542,227.006137 C122.156018,228.190806 125.368346,245.430834 147.496815,244.821012 C167.366252,245.073909 172.773939,228.006066 191.871234,227.003447 C212.929824,225.897696 223.757752,243.834536 243.741083,242.753895 C243.741083,242.753895 238.593467,235.5006 234.962336,231.92507" transform="matrix(1 0 0 -1 0 462.767)"/>
    <path fill="#76CBEF" d="M234.962336,231.92507 C215.001425,225.903077 216.034536,219.436273 197.149782,218.363703 C171.411704,216.89475 166.708003,234.185895 147.496815,234.642365 C127.794182,234.059447 123.287776,216.66786 98.8455705,218.003191 C91.6084177,218.396885 90.6120761,219.934892 85.7065958,220.83976 C76.5332579,228.18991 67.63434,238.375731 68.2172581,238.298607 C85.0788378,236.156159 83.6098841,225.705782 103.781542,227.006137 C122.156018,228.190806 125.368346,245.430834 147.496815,244.821012 C167.366252,245.073909 172.773939,228.006066 191.871234,227.003447 C212.929824,225.897696 223.757752,243.834536 243.741083,242.753895 C243.741083,242.753895 238.593467,235.5006 234.962336,231.92507" transform="matrix(1 0 0 -1 0 462.767)"/>
    <path fill="#76CBEF" d="M105.799874,244.453588 C125.534791,245.723453 124.8604,260.39326 147.117111,260.756463 C172.836356,259.653403 168.396313,248.615624 194.671572,245.03561 C198.98696,244.447311 203.742675,245.181788 206.394504,245.623012 C199.132241,242.345218 191.117565,238.491681 186.922348,238.034314 C165.685296,241.017958 166.399146,250.469303 147.117111,251.174186 C130.490492,249.899837 131.341553,243.493119 119.004315,239.055766 C113.601112,240.744435 104.679774,244.274229 105.799874,244.453588" transform="matrix(1 0 0 -1 0 498.79)"/>
    <path fill="#76CBEF" d="M105.799874,244.453588 C125.534791,245.723453 124.8604,260.39326 147.117111,260.756463 C172.836356,259.653403 168.396313,248.615624 194.671572,245.03561 C198.98696,244.447311 203.742675,245.181788 206.394504,245.623012 C199.132241,242.345218 191.117565,238.491681 186.922348,238.034314 C165.685296,241.017958 166.399146,250.469303 147.117111,251.174186 C130.490492,249.899837 131.341553,243.493119 119.004315,239.055766 C113.601112,240.744435 104.679774,244.274229 105.799874,244.453588" transform="matrix(1 0 0 -1 0 498.79)"/>
    <path fill="#76CBEF" d="M54.2402265,131.371572 C74.647742,132.940967 83.6237844,118.998462 103.781094,117.72501 C122.157364,116.566348 119.35846,134.353423 147.496366,135.538988 C174.941946,134.669095 172.836266,118.848697 191.211639,117.72501 C211.436208,116.491017 220.284009,132.57059 240.867297,132.995672 C244.868805,133.076384 248.852378,132.827971 254.408036,131.395786 C254.408036,131.395786 256.627609,126.906419 258.316278,120.189409 C250.407424,122.788327 245.883083,122.868142 240.867297,122.814334 C220.708194,122.603587 211.436208,106.311473 191.211639,107.546363 C172.836266,108.669153 173.624551,124.244725 147.496366,125.361238 C122.574374,124.244725 122.15557,108.730135 103.781094,107.546363 C83.6103325,106.244213 74.5311583,123.959544 54.1263332,122.391046 C52.7820343,122.287914 52.0350023,122.296882 50.4844401,121.884355 C51.4251803,124.905665 54.2402265,131.371572 54.2402265,131.371572" transform="matrix(1 0 0 -1 0 243.017)"/>
    <path fill="#76CBEF" d="M54.2402265,131.371572 C74.647742,132.940967 83.6237844,118.998462 103.781094,117.72501 C122.157364,116.566348 119.35846,134.353423 147.496366,135.538988 C174.941946,134.669095 172.836266,118.848697 191.211639,117.72501 C211.436208,116.491017 220.284009,132.57059 240.867297,132.995672 C244.868805,133.076384 248.852378,132.827971 254.408036,131.395786 C254.408036,131.395786 256.627609,126.906419 258.316278,120.189409 C250.407424,122.788327 245.883083,122.868142 240.867297,122.814334 C220.708194,122.603587 211.436208,106.311473 191.211639,107.546363 C172.836266,108.669153 173.624551,124.244725 147.496366,125.361238 C122.574374,124.244725 122.15557,108.730135 103.781094,107.546363 C83.6103325,106.244213 74.5311583,123.959544 54.1263332,122.391046 C52.7820343,122.287914 52.0350023,122.296882 50.4844401,121.884355 C51.4251803,124.905665 54.2402265,131.371572 54.2402265,131.371572" transform="matrix(1 0 0 -1 0 243.017)"/>
    <path fill="#142E4D" d="M201.607401,193.844345 C197.365551,196.177811 193.558647,197.977683 189.704213,195.330338 C187.048797,193.503562 186.102676,191.259776 185.799558,188.056416 C185.51079,184.991164 186.106263,182.889071 188.027202,180.485655 L187.708839,179.955648 C182.936982,175.501256 176.440584,173.389299 168.686876,173.96863 C164.02084,174.317484 161.880185,177.03747 157.228499,177.501114 C151.901524,178.030224 148.896356,177.613214 143.622293,175.727249 C136.972542,173.34715 132.999731,170.506096 127.904129,164.525356 C122.954706,158.715905 121.029282,149.79367 123.023759,140.403307 C124.452357,133.668361 126.564314,129.737699 131.468001,124.894994 C136.997652,119.4335 141.721979,117.231863 149.438919,116.268703 C158.757538,115.103763 164.862933,117.436333 172.650719,122.679905 C176.439687,125.233087 178.757011,127.373742 181.238448,130.648845 C180.178434,140.098396 181.634833,146.38315 186.755544,154.398723 C191.532782,161.877114 196.088512,165.606894 204.367743,168.820118 L205.429551,166.911734 C202.620782,160.915748 201.71412,156.98957 201.607401,150.373001 C201.480953,142.371777 202.320355,137.271692 206.488668,130.438994 C208.508255,127.129813 210.018462,125.443834 212.857721,122.80187 C218.383785,117.658738 222.520711,115.380874 229.834091,113.470696 L230.385621,111.749742 C228.242276,109.51313 226.806504,108.403792 224.102661,106.89807 C215.620753,102.163878 208.418576,103.182639 199.196811,106.23982 C193.87432,108.006511 188.297138,111.872603 186.705323,113.354112 C183.256242,110.909443 182.624,110.396475 179.808954,108.842326 C173.908925,105.582468 170.136997,104.440845 163.562577,102.951265 C158.570107,101.816817 155.651929,101.51639 150.537495,101.271564 C143.661752,100.941543 139.64141,100.839308 132.919916,102.324404 C126.271958,103.788874 122.704499,105.542112 116.666364,108.682696 C109.602293,112.361358 105.372998,115.485799 99.8765285,120.297115 C92.3434326,126.978254 78.3175255,135.527421 78.3175255,135.527421 L69.6167997,137.436702 L70.0418816,138.916418 C73.1376253,141.398752 74.3931413,144.300787 74.0738815,148.249385 C73.7806288,151.870652 72.400458,154.253442 69.4051556,156.309798 L69.8275471,158.218182 C73.1447996,160.17589 74.6989491,163.069855 74.4971697,166.911734 C74.2801448,171.041484 72.0390488,174.027819 68.1326005,175.395434 L68.979177,177.304715 C72.6515612,178.825683 74.6541092,181.613826 74.9213548,185.574979 C75.1285149,188.655477 75.1778387,192.312615 72.1637036,192.995975 L67.0698959,194.15105 C66.9802162,194.582409 66.7470489,194.849655 67.0698959,195.280117 C67.148814,195.385042 69.5190488,196.263007 70.8436182,197.26742 C72.3403726,198.403662 73.1717036,199.194637 74.0738815,200.841156 C75.6621092,203.756644 76.4602586,206.506224 74.7088138,209.325754 C73.5250416,211.232345 72.2228922,212.635832 69.9791058,212.602651 L63.462081,212.50759 L63.8871629,213.990893 C65.088871,214.565739 65.3094831,214.745996 66.8591486,215.686736 C71.7395185,218.656928 75.5787071,221.340145 75.7715184,226.927191 C75.9643298,232.564458 72.7995327,235.622536 67.4940809,238.803476 L103.146251,238.803476 L118.424087,225.441198 C123.387859,228.130693 126.363432,229.198778 132.125353,230.702707 C138.81277,232.445184 142.829524,232.591362 149.742036,232.632614 C157.050036,232.675661 161.343004,232.238921 168.380171,230.277625 C174.803032,228.490309 178.321167,226.377454 183.95126,222.810892 C190.766918,218.496401 195.236555,215.496615 199.295458,208.529398 C201.158106,205.33411 201.821736,204.022992 203.094291,195.116003 C202.638718,195.239761 203.143615,194.249697 202.776825,193.951961 C202.423487,193.660502 202.00827,193.623733 201.607401,193.844345" transform="matrix(1 0 0 -1 0 339.87)"/>
    <path fill="#FFFFFF" d="M187.164932,124.413818 C183.992064,121.866017 182.053188,120.572836 178.479452,118.619611 C172.815281,115.526558 169.290868,114.182259 162.989972,112.786843 C158.23336,111.734003 155.444321,111.540295 150.573816,111.406672 C144.139296,111.237177 140.395168,111.324167 134.127453,112.786843 C127.939553,114.231583 124.551453,115.713989 118.953645,118.724537 C112.439311,122.232807 108.859297,124.690928 103.67581,129.963198 C97.7650197,135.981604 94.9535607,140.160678 91.5798099,147.884792 C88.7226142,154.430514 87.7020591,158.495696 86.9119808,165.592948 C86.0761659,173.080308 86.3685217,177.488065 87.7594541,184.890229 C89.0033117,191.508592 89.9279095,195.363026 93.0658027,201.32583 C95.5508276,206.048364 97.5040517,208.445502 101.02398,212.45867 C107.056735,219.341588 111.254642,222.807708 119.275596,227.231609 C124.4824,230.10405 127.627467,231.528164 133.384905,233.030299 C139.626613,234.660676 143.377915,234.795196 149.829474,234.831964 C156.654997,234.87232 160.66099,234.860662 167.231822,233.030299 C173.228705,231.362256 176.513673,229.785687 181.770697,226.454982 C188.128989,222.427466 192.299992,220.018669 196.093444,213.518684 C197.953402,210.329673 198.745273,208.006969 199.59454,204.718413 C199.607992,204.662812 199.658213,204.652947 199.700362,204.613488 C195.480932,207.230342 191.096491,207.156805 186.967637,204.400947 C183.874583,202.33383 182.454953,200.012919 181.875623,196.343225 C181.316918,192.815225 181.908804,190.333788 183.997445,187.436236 C178.90274,183.619467 175.779196,183.357603 170.204705,183.619467 C165.648078,183.830215 163.565716,186.483837 159.051239,187.120563 C152.339609,188.067581 147.484349,187.916022 141.769061,185.291097 C136.016108,182.65003 129.02378,179.368649 124.147894,172.391567 C118.105275,163.742856 116.664122,156.189134 118.847823,145.870586 C120.448606,138.303412 122.887894,133.918074 128.39961,128.479896 C134.613517,122.349391 139.90193,119.910999 148.557816,118.724537 C160.541716,117.085191 169.939253,121.414928 178.122527,128.085305 C182.15632,131.376551 181.981445,131.367583 185.375822,135.186145 C184.534626,143.059127 184.260206,148.598643 188.003437,155.781091 C190.95659,161.456023 193.77074,164.434286 199.274384,167.711183 C197.769558,161.932222 197.473615,158.397945 198.001829,152.444109 C198.596405,145.716337 199.465401,141.673575 202.82301,135.813006 C204.381643,133.100195 205.338526,131.541561 207.550924,129.328266 C212.644732,124.237149 215.719849,122.118914 221.981287,118.514686 L224.314753,117.773035 C222.370497,116.155213 220.501572,114.848579 218.737572,114.466544 C211.495038,112.896252 206.861287,113.470202 200.122754,116.285248 C193.557302,119.028551 190.176377,121.481291 188.926242,122.732323 C187.93259,123.725077 187.827665,123.730458 187.164932,124.413818" transform="matrix(1 0 0 -1 0 346.185)"/>
    <path fill="#FFFFFF" d="M113.756347,109.970608 L101.023622,121.848686 L78.5301561,121.848686 C80.1712948,119.040814 80.6995084,117.038266 80.6519781,113.78917 C80.5972735,110.127547 79.8367895,107.842508 77.6790956,104.883078 L106.540718,104.883078 L113.756347,109.970608 Z" transform="matrix(1 0 0 -1 0 226.732)"/>
    <path fill="#FFFFFF" d="M100.812336,138.601663 L98.2645357,140.510945 L78.7412621,140.510945 C80.0245788,137.583799 80.3832977,135.644923 80.227255,132.452326 C80.085561,129.546703 79.6326785,127.838304 78.3179739,125.242973 L90.4112832,125.242973 C92.2811052,128.348582 93.4585998,130.041735 95.7185286,132.876511 C97.5802795,135.214461 98.7075535,136.479841 100.812336,138.601663" transform="matrix(1 0 0 -1 0 265.754)"/>
    <path fill="#FFFFFF" d="M87.4418085,161.718044 L85.9576093,162.566414 L77.2568835,162.566414 C78.8478016,158.852778 79.3033746,156.423354 79.1670614,152.385973 C79.0567554,149.176337 78.664855,147.310102 77.4685277,144.328251 L82.7739795,144.328251 C83.4402997,148.000635 83.9102214,150.058785 84.8966983,153.659425 C85.7683851,156.837674 86.3279865,158.616023 87.4418085,161.718044" transform="matrix(1 0 0 -1 0 306.895)"/>
    <path fill="#FFFFFF" d="M82.3500635,182.289225 L77.0428181,182.289225 C77.9853518,179.348628 78.2328678,177.526336 78.1037291,174.443147 C77.9611383,170.955503 77.4625191,168.910806 75.981907,165.747802 L82.3500635,165.747802 C82.0191453,168.96013 81.9240848,170.788699 81.9240848,174.018065 C81.9240848,177.246535 82.0191453,179.076898 82.3500635,182.289225" transform="matrix(1 0 0 -1 0 348.037)"/>
    <path fill="#FFFFFF" d="M82.7730827,199.466567 L77.2568835,199.466567 C78.0075027,197.067635 78.2487412,195.621998 78.3177945,193.104688 C78.3994031,190.103108 78.1536807,188.342696 77.2568835,185.472048 L87.0176235,185.472048 C85.8867623,188.234183 85.3253673,189.825998 84.4716164,192.683194 C83.6896093,195.300048 83.3147481,196.795009 82.7730827,199.466567" transform="matrix(1 0 0 -1 0 384.939)"/>
    <polygon fill="#FFFFFF" points="90.625 202.646 88.504 207.1 84.471 207.1 89.777 202.434" transform="matrix(1 0 0 -1 0 409.534)"/>
    <path fill="#142E4D" fill-rule="nonzero" d="M157.895536,135.10254 C157.895536,138.090668 160.603864,140.510227 163.943536,140.510227 C167.284105,140.510227 169.989742,138.090668 169.989742,135.10254 C169.989742,132.115309 167.284105,129.696647 163.943536,129.696647 C160.603864,129.696647 157.895536,132.115309 157.895536,135.10254" transform="matrix(1 0 0 -1 0 270.207)"/>
    <path fill="#142E4D" fill-rule="nonzero" d="M157.895536,135.10254 C157.895536,138.090668 160.603864,140.510227 163.943536,140.510227 C167.284105,140.510227 169.989742,138.090668 169.989742,135.10254 C169.989742,132.115309 167.284105,129.696647 163.943536,129.696647 C160.603864,129.696647 157.895536,132.115309 157.895536,135.10254" transform="matrix(1 0 0 -1 0 270.207)"/>
    <path fill="#142E4D" d="M178.267897,150.269891 L175.295912,151.752297 C173.684367,149.026033 172.450374,147.599229 169.991357,145.603855 C166.973634,143.15829 164.849122,142.093792 161.079884,141.150361 L162.563186,139.028539 C166.528823,139.388155 168.902645,140.284952 172.113179,142.63456 C175.200851,144.894489 176.715542,146.775073 178.267897,150.269891" transform="matrix(1 0 0 -1 0 290.78)"/>
    <path fill="#142E4D" d="M178.267897,150.269891 L175.295912,151.752297 C173.684367,149.026033 172.450374,147.599229 169.991357,145.603855 C166.973634,143.15829 164.849122,142.093792 161.079884,141.150361 L162.563186,139.028539 C166.528823,139.388155 168.902645,140.284952 172.113179,142.63456 C175.200851,144.894489 176.715542,146.775073 178.267897,150.269891" transform="matrix(1 0 0 -1 0 290.78)"/>
    <path fill="#142E4D" d="M138.159901,163.040372 L105.691361,163.040372 L105.479717,161.341838 C108.521653,159.657653 110.071318,157.69277 110.996813,154.34413 C111.909752,151.050194 111.611119,148.627945 109.935005,145.650579 C111.198592,144.381611 111.797653,143.483917 112.481909,141.832016 C113.90961,138.393696 113.848628,135.661155 112.272058,132.288301 L113.757155,131.652472 L137.734819,145.650579 L138.583189,143.952942 L143.890435,145.438038 C141.997296,149.296956 141.474463,151.96403 141.768613,156.252514 C142.156029,161.940898 143.74336,165.511048 147.708997,169.612998 L144.102976,171.522279 C142.637609,169.916115 141.843047,168.981653 140.495161,167.280429 C139.467431,165.984557 138.904243,165.234834 137.948257,163.886051 L138.159901,163.040372 Z" transform="matrix(1 0 0 -1 0 303.175)"/>
    <path fill="#142E4D" d="M138.159901,163.040372 L105.691361,163.040372 L105.479717,161.341838 C108.521653,159.657653 110.071318,157.69277 110.996813,154.34413 C111.909752,151.050194 111.611119,148.627945 109.935005,145.650579 C111.198592,144.381611 111.797653,143.483917 112.481909,141.832016 C113.90961,138.393696 113.848628,135.661155 112.272058,132.288301 L113.757155,131.652472 L137.734819,145.650579 L138.583189,143.952942 L143.890435,145.438038 C141.997296,149.296956 141.474463,151.96403 141.768613,156.252514 C142.156029,161.940898 143.74336,165.511048 147.708997,169.612998 L144.102976,171.522279 C142.637609,169.916115 141.843047,168.981653 140.495161,167.280429 C139.467431,165.984557 138.904243,165.234834 137.948257,163.886051 L138.159901,163.040372 Z" transform="matrix(1 0 0 -1 0 303.175)"/>
    <path fill="#FFFFFF" d="M137.311262,153.07301 L112.48164,153.07301 C113.26006,151.328739 113.594565,150.27859 113.967633,148.407871 C114.343391,146.535359 114.438451,145.439473 114.393611,143.529295 L136.675433,148.831159 L137.311262,153.07301 Z" transform="matrix(1 0 0 -1 0 296.602)"/>
    <path fill="#FFFFFF" d="M116.514178,151.162652 L136.886718,161.130553 L136.249992,164.948218 L115.45237,159.857997 C115.901665,158.3173 116.09089,157.420503 116.302534,155.829585 C116.541979,154.022539 116.588612,152.983151 116.514178,151.162652" transform="matrix(1 0 0 -1 0 316.11)"/>
    <path fill="#006D53" d="M109.999216,269.742371 L134.645891,304.625985 C139.641948,302.882612 151.473393,302.333772 151.473393,302.333772 L126.766632,265.900492 C122.470974,266.077161 109.999216,269.742371 109.999216,269.742371" transform="matrix(1 0 0 -1 0 570.526)"/>
    <path fill="#FFFFFF" d="M127.168845,268.715897 L151.705215,305.576052 C156.700375,303.831782 168.90399,305.959881 168.90399,305.959881 L143.143493,266.959968 C140.232489,267.080139 139.895293,267.053235 127.168845,268.715897" transform="matrix(1 0 0 -1 0 572.92)"/>
    <polygon fill="#142E4D" points="120.592 89.71 113.734 105.842 122.816 109.692 123.976 106.963 117.562 104.243 119.185 100.425 124.728 102.773 125.889 100.046 120.345 97.695 123.261 90.84" transform="matrix(1 0 0 -1 0 199.402)"/>
    <polygon fill="#142E4D" points="130.612 87.926 126.069 104.854 128.869 105.603 133.411 88.674" transform="matrix(1 0 0 -1 0 193.529)"/>
    <path fill="#142E4D" d="M137.519678,100.500738 L138.212902,95.5773216 L139.80113,95.7979337 C140.868318,95.9485956 141.580375,96.1243679 141.940888,96.3306312 C142.306781,96.5333074 142.582994,96.844496 142.774909,97.2668874 C142.96503,97.6955564 143.018838,98.1941756 142.939023,98.762745 C142.858311,99.3384888 142.663706,99.8066169 142.355208,100.164439 C142.04671,100.524055 141.696062,100.745563 141.307749,100.828966 C140.914952,100.909677 140.120389,100.863941 138.919578,100.697136 L137.519678,100.500738 Z M136.679379,85.6793717 L134.2374,103.03419 L138.861286,103.682574 C140.584034,103.924709 141.722966,103.999143 142.277187,103.906773 C143.158738,103.757905 143.935364,103.285293 144.603478,102.486247 C145.279663,101.685407 145.715507,100.595798 145.911905,99.2147308 C146.087678,97.9610084 145.998895,96.8740903 145.64466,95.9566668 C145.288631,95.0437273 144.781044,94.3648519 144.117414,93.9182469 C143.452888,93.4779195 142.252973,93.1371366 140.51229,92.8932078 L138.627222,92.6277558 L139.550923,86.0820336 L136.679379,85.6793717 Z" transform="matrix(1 0 0 -1 0 189.624)"/>
    <path fill="#142E4D" d="M148.274248,91.5240068 L151.128754,91.6585264 C151.290177,89.4030816 152.256924,88.2139286 154.023615,88.0901706 C154.901579,88.0273948 155.604668,88.2067542 156.139159,88.6255585 C156.671857,89.0515371 156.964212,89.6012738 157.010846,90.2774588 C157.036853,90.6765335 156.972284,91.0182132 156.816241,91.3096723 C156.663785,91.6002346 156.410889,91.845957 156.065622,92.0468395 C155.720355,92.2539997 154.873778,92.6154089 153.524099,93.1337577 C152.314319,93.5929178 151.439942,94.0619427 150.899174,94.5399356 C150.354818,95.0170316 149.937807,95.6214729 149.645451,96.3523626 C149.36027,97.0913234 149.247273,97.8706401 149.303771,98.6885191 C149.370134,99.643608 149.645451,100.487494 150.129722,101.220177 C150.619373,101.952861 151.26148,102.486455 152.055145,102.824547 C152.847914,103.159053 153.804796,103.288192 154.928483,103.209273 C156.615358,103.09269 157.901365,102.542953 158.785607,101.563651 C159.664469,100.581658 160.077892,99.2400493 160.015116,97.5334444 L157.101422,97.5827682 C157.04044,98.5288892 156.81086,99.2023838 156.414476,99.6077361 C156.018092,100.009501 155.432483,100.239081 154.653166,100.292889 C153.869366,100.347594 153.258647,100.226526 152.813835,99.9305831 C152.368127,99.6337433 152.125992,99.2436365 152.095501,98.7584693 C152.060526,98.2813732 152.222846,97.8670529 152.583359,97.5137148 C152.942974,97.15948 153.797622,96.7415725 155.147302,96.2546117 C156.575899,95.7335725 157.597351,95.214327 158.208967,94.7004622 C158.828654,94.1937719 159.284227,93.5588395 159.575686,92.7947683 C159.865351,92.0387684 159.97476,91.1365904 159.900326,90.0873378 C159.792711,88.5708539 159.2358,87.3260994 158.223316,86.3584553 C157.220696,85.3908112 155.723942,84.9755942 153.732156,85.1137009 C150.212227,85.3594233 148.391729,87.4964909 148.274248,91.5240068" transform="matrix(1 0 0 -1 0 188.32)"/>
    <path fill="#142E4D" d="M172.503554,96.0257713 L172.517006,102.8217 L168.747768,97.1727748 L172.503554,96.0257713 Z M175.589433,87.8317359 L172.56633,88.755437 L172.531355,92.928234 L167.034886,94.6070383 L164.735498,91.1471949 L161.780551,92.0475792 L172.272181,107.17296 L175.215469,106.272575 L175.589433,87.8317359 Z" transform="matrix(1 0 0 -1 0 195.005)"/>
    <path fill="#142E4D" d="M179.453732,101.574412 L182.098387,100.493772 C181.287682,98.3791243 181.66075,96.894925 183.209519,96.0375869 C183.975383,95.6116083 184.692821,95.4761919 185.350173,95.630441 C186.015597,95.7891741 186.510629,96.1667257 186.842444,96.7586118 C187.034358,97.1092595 187.124038,97.447352 187.103412,97.7755798 C187.086373,98.1038075 186.960821,98.4338289 186.733931,98.760263 C186.507042,99.0938716 185.893632,99.7808182 184.89191,100.818412 C183.991526,101.744804 183.396052,102.539366 183.10549,103.200306 C182.817618,103.862142 182.692963,104.585857 182.737803,105.372348 C182.794302,106.163323 183.020294,106.916633 183.419369,107.634071 C183.883013,108.470782 184.489248,109.117373 185.237177,109.579224 C185.994074,110.037487 186.800294,110.250028 187.660323,110.220434 C188.522145,110.189942 189.443155,109.903864 190.427839,109.359508 C191.907554,108.539836 192.840223,107.499551 193.225846,106.238654 C193.611469,104.976861 193.413276,103.586825 192.637547,102.068548 L190.015312,103.341103 C190.361476,104.225345 190.4386,104.932918 190.250273,105.465615 C190.061049,105.998313 189.626102,106.452092 188.941846,106.831437 C188.258486,107.211679 187.653148,107.358754 187.124038,107.278939 C186.594031,107.19733 186.211099,106.944434 185.976138,106.521145 C185.742074,106.101444 185.71517,105.656633 185.893632,105.185814 C186.067611,104.713202 186.666672,103.973345 187.684536,102.962654 C188.756209,101.886498 189.460195,100.985217 189.798287,100.263295 C190.147141,99.5413733 190.292422,98.7728182 190.233234,97.9594232 C190.174942,97.1505122 189.893348,96.2877933 189.382173,95.3667827 C188.640522,94.0359357 187.610999,93.146313 186.282842,92.695224 C184.96186,92.2414447 183.430131,92.4970319 181.684067,93.4637792 C178.599085,95.1712809 177.854743,97.8751243 179.453732,101.574412" transform="matrix(1 0 0 -1 0 202.7)"/>
    <path fill="#E5312A" d="M142.395205,264.538676 L167.456201,304.11792 C176.09146,304.593223 186.541837,307.927514 186.541837,307.927514 L160.021753,263.600626 C151.868073,263.049992 142.395205,264.538676 142.395205,264.538676" transform="matrix(1 0 0 -1 0 571.406)"/>
    <polygon fill="#142E4D" fill-rule="nonzero" points="143.938 52.039 145.038 52.039 145.038 57.588 143.975 57.588" transform="matrix(1 0 0 -1 0 109.627)"/>
    <path fill="#142E4D" fill-rule="nonzero" d="M148.230485,57.6028591 L147.16509,57.2602826 L147.16509,53.6623325 C147.16509,53.6623325 146.925645,52.3610798 148.846584,52.5332649 L148.846584,53.4228876 C148.846584,53.4228876 148.264563,53.2507026 148.264563,53.867699 L148.264563,55.6828164 L149.016976,55.6828164 L149.016976,56.5401545 L148.264563,56.5401545 L148.230485,57.6028591 Z" transform="matrix(1 0 0 -1 0 110.12)"/>
    <polygon fill="#142E4D" fill-rule="nonzero" points="156.327 57.554 157.427 57.554 157.427 52.074 156.327 52.074" transform="matrix(1 0 0 -1 0 109.627)"/>
    <polygon fill="#142E4D" fill-rule="nonzero" points="159.622 57.555 160.721 57.555 160.721 53.752 159.622 53.752" transform="matrix(1 0 0 -1 0 111.307)"/>
    <polygon fill="#142E4D" fill-rule="nonzero" points="159.622 53.134 160.721 53.134 160.721 52.074 159.622 52.074" transform="matrix(1 0 0 -1 0 105.208)"/>
    <path fill="#142E4D" fill-rule="nonzero" d="M152.24419,54.5559636 C151.663065,54.6025971 151.521371,55.0698284 151.96977,55.3110668 C152.414581,55.5496149 153.033371,55.4124049 153.033371,55.4124049 C153.033371,55.4124049 153.101528,54.4896007 152.24419,54.5559636 M154.09787,56.1997928 C153.993841,57.5709956 153.514055,57.5709956 152.587663,57.6741273 C151.660375,57.7763621 151.110638,57.3656291 151.110638,57.3656291 L151.110638,56.4060561 C151.110638,56.4060561 151.386852,56.7145543 152.278268,56.817686 C153.172375,56.9199209 153.101528,56.1997928 153.101528,56.1997928 C153.101528,56.1997928 152.792133,56.1997928 151.935692,56.1307394 C151.077457,56.0634796 150.87209,55.7899565 150.700802,55.0034654 C150.526823,54.2151807 151.317798,53.6322626 151.935692,53.6322626 C152.552688,53.6322626 153.1374,54.1111523 153.1374,54.1111523 L153.172375,53.7344975 L154.166026,53.7344975 C154.063791,54.1111523 154.09787,56.1997928 154.09787,56.1997928" transform="matrix(1 0 0 -1 0 111.323)"/>
    <path fill="#142E4D" fill-rule="nonzero" d="M164.287009,54.5559636 C163.705885,54.6025971 163.568675,55.0698284 164.01528,55.3110668 C164.461885,55.5496149 165.080675,55.4124049 165.080675,55.4124049 C165.080675,55.4124049 165.147038,54.4896007 164.287009,54.5559636 M166.141586,56.1997928 C166.038454,57.5709956 165.557771,57.5709956 164.632276,57.6741273 C163.705885,57.7763621 163.158839,57.3656291 163.158839,57.3656291 L163.158839,56.4060561 C163.158839,56.4060561 163.432362,56.7145543 164.322881,56.817686 C165.216091,56.9199209 165.147038,56.1997928 165.147038,56.1997928 C165.147038,56.1997928 164.837643,56.1997928 163.980305,56.1307394 C163.121173,56.0634796 162.9176,55.7899565 162.744518,55.0034654 C162.57323,54.2151807 163.362412,53.6322626 163.980305,53.6322626 C164.596404,53.6322626 165.180219,54.1111523 165.180219,54.1111523 L165.216091,53.7344975 L166.211536,53.7344975 C166.108404,54.1111523 166.141586,56.1997928 166.141586,56.1997928" transform="matrix(1 0 0 -1 0 111.323)"/>
    <path fill="#006E54" fill-rule="nonzero" d="M143.870885,79.6187781 C143.870885,79.6187781 143.562386,72.9385363 144.761404,69.2033763 C145.964906,65.4682162 148.196137,59.7825224 154.681774,58.9242875 C154.681774,58.9242875 154.236066,61.2541665 154.131141,63.5158889 C154.028906,65.7767144 154.063881,79.548828 154.063881,79.548828 L150.87218,79.548828 C150.87218,79.548828 150.73497,70.1961307 151.317888,66.839419 C151.901703,63.4827074 152.344721,61.6666932 153.172465,60.5008569 C153.172465,60.5008569 150.356522,61.6666932 149.120735,69.9575826 C149.120735,69.9575826 148.298372,75.8836181 148.536023,79.5829062 L147.199796,79.5829062 C147.199796,79.5829062 146.959454,76.2611697 147.43924,71.7727 C147.920821,67.286024 149.086657,64.1669636 150.766358,61.7007715 C150.766358,61.7007715 147.302031,63.6530988 145.689589,70.7790488 C145.386472,72.1179669 144.968564,75.4388067 145.174828,79.6187781 L143.870885,79.6187781 Z" transform="matrix(1 0 0 -1 0 138.543)"/>
    <path fill="#E5312A" fill-rule="nonzero" d="M156.294664,79.6187781 L157.699048,79.6187781 C157.699048,79.6187781 158.078393,65.9148212 156.673112,60.5699103 C156.673112,60.5699103 160.102464,63.276444 159.5886,79.6187781 L160.960699,79.6187781 C160.960699,79.6187781 161.544514,66.0852126 158.249682,61.1528284 C158.249682,61.1528284 164.01519,65.1265365 163.018849,79.6187781 L166.175575,79.6187781 C166.175575,79.6187781 166.519048,74.7195754 165.38729,69.8185791 C165.38729,69.8185791 163.46635,59.6793907 155.127034,58.9242875 C155.127034,58.9242875 155.744927,60.4685722 155.81129,63.3105223 C155.81129,63.3105223 156.190635,71.7377249 156.190635,72.7663513 C156.190635,73.7949776 156.294664,79.6187781 156.294664,79.6187781" transform="matrix(1 0 0 -1 0 138.543)"/>
    <polygon fill="#FFFFFF" fill-rule="nonzero" points="91.161 270.523 92.676 273.988 99.438 271.041 101.45 275.647 95.491 278.243 97.007 281.709 102.965 279.113 106.761 287.793 109.561 286.572 100.723 266.356" transform="matrix(1 0 0 -1 0 554.15)"/>
    <polygon fill="#FFFFFF" fill-rule="nonzero" points="78.461 262.564 80.326 265.856 87.031 262.068 89.507 266.437 83.318 269.934 85.183 273.226 91.372 269.731 94.178 274.681 87.174 278.64 89.039 281.933 98.706 276.469 87.825 257.272" transform="matrix(1 0 0 -1 0 539.206)"/>
    <path fill="#FFFFFF" fill-rule="nonzero" d="M82.7852791,268.356224 L80.8087382,269.791996 C79.6698059,270.61705 78.3012935,270.64216 76.4736209,269.273647 C75.5687526,268.621676 74.333863,267.272893 73.2801263,265.794075 C72.1923114,264.300907 71.2865463,262.675911 71.0542759,261.459854 C70.6812082,259.635769 71.12871,258.899498 72.017436,258.251114 L74.2432865,256.639569 L82.7852791,268.356224 Z M74.4845249,251.78431 L68.9001691,255.842317 C67.6634859,256.740908 66.756824,258.745249 68.0912581,262.790701 C68.3800268,263.70364 69.1162973,265.301733 70.4543186,267.137477 C72.7187313,270.243085 74.8674573,272.051028 76.3552437,272.91285 C78.5703326,274.225761 80.8132222,274.467 82.0642542,273.555854 L87.4853929,269.617121 L74.4845249,251.78431 Z" transform="matrix(1 0 0 -1 0 525.886)"/>
    <polygon fill="#FFFFFF" fill-rule="nonzero" points="53.273 247.576 55.839 250.358 61.507 245.15 64.913 248.846 59.682 253.657 62.247 256.438 67.48 251.631 71.338 255.816 65.417 261.256 67.982 264.04 76.152 256.53 61.189 240.3" transform="matrix(1 0 0 -1 0 504.34)"/>
    <path fill="#FFFFFF" fill-rule="nonzero" d="M55.1702948,238.258065 L52.4449283,241.418378 C51.9785938,241.957353 50.2908216,242.199489 48.7581953,240.637268 C47.5636615,239.610435 47.1932843,238.649069 48.0855974,237.615959 L50.7849568,234.48793 L55.1702948,238.258065 Z M49.9105796,229.705311 L44.5235192,235.948813 C43.6213413,237.132585 43.4186652,238.945909 44.9521883,240.829183 C45.5530423,241.616571 46.5484871,242.872983 48.2353625,243.838834 C49.9204444,244.807375 50.8737397,244.767916 52.1920315,244.586763 C52.2494265,245.308684 52.0243304,246.400983 53.4331987,247.828684 C54.0681311,248.482449 56.2464513,250.409666 57.083163,251.156698 C58.0256968,251.965609 58.0705367,252.327019 58.0884726,252.773624 L58.7081594,253.306321 L60.8506078,250.823987 C60.5035473,250.205197 60.080259,249.676086 59.5547359,249.17388 C58.7538961,248.431332 57.4221524,247.287019 56.1800883,246.270051 C55.0797182,245.271019 55.0079745,244.242393 55.7003019,243.441553 L58.0400456,240.727845 L64.6530276,246.415332 L66.6484012,244.103389 L49.9105796,229.705311 Z" transform="matrix(1 0 0 -1 0 483.012)"/>
    <path fill="#FFFFFF" fill-rule="nonzero" d="M48.4653013,225.206259 L46.3461697,228.366572 L40.3187962,221.963441 L48.4653013,225.206259 Z M50.4615717,236.971341 L52.1950806,234.382287 L49.0849881,231.082971 L52.1466536,226.51648 L56.4019559,228.110088 L58.1363616,225.524622 L36.8984119,217.548508 L34.9362198,220.472067 L50.4615717,236.971341 Z" transform="matrix(1 0 0 -1 0 454.52)"/>
    <polygon fill="#FFFFFF" fill-rule="nonzero" points="25.578 217.184 28.941 218.927 45.326 218.879 41.821 225.611 45.183 227.354 50.333 217.463 46.971 215.716 30.594 215.75 34.089 209.034 30.727 207.293" transform="matrix(1 0 0 -1 0 434.647)"/>
    <polygon fill="#FFFFFF" fill-rule="nonzero" points="43.638 215.066 44.854 212.266 24.589 203.482 23.371 206.28" transform="matrix(1 0 0 -1 0 418.548)"/>
    <path fill="#FFFFFF" fill-rule="nonzero" d="M35.2638198,203.534672 C33.6872505,204.035982 31.262311,203.736452 28.9871367,202.990316 C26.7254143,202.208309 24.6116635,200.983284 23.6610585,199.632708 C22.903265,198.561932 22.8117917,197.500124 23.1247738,196.575526 C23.4368593,195.650929 24.1507098,194.859057 25.4044322,194.46626 C26.9801047,193.964053 29.4050442,194.263583 31.6802185,195.007925 C33.9419408,195.790829 36.0565885,197.016751 37.0071934,198.367327 C37.7658838,199.438103 37.8555635,200.499911 37.5434781,201.423612 C37.2304959,202.349106 36.5157486,203.140978 35.2638198,203.534672 M37.1121187,206.495 C39.3173428,205.927327 40.7011008,204.48169 41.3046453,202.687199 C41.9099833,200.897192 41.6848873,198.908993 40.2724318,197.12616 C38.6761329,195.128993 35.775891,193.295043 32.6173715,192.233235 C29.4579552,191.168737 26.0384677,190.877277 23.5561333,191.503242 C21.3500123,192.070018 19.9662544,193.517448 19.3627099,195.311042 C18.7573718,197.104637 18.9833647,199.089249 20.3949234,200.873875 C21.9921191,202.872836 24.8914642,204.704992 28.0508805,205.769491 C31.2094,206.831298 34.6288874,207.121861 37.1121187,206.495" transform="matrix(1 0 0 -1 0 398)"/>
    <polygon fill="#FFFFFF" fill-rule="nonzero" points="15.774 178.341 29.45 187.25 14.573 184.22 13.961 187.211 35.609 191.622 36.211 188.67 22.329 179.716 37.414 182.79 38.026 179.798 16.377 175.39" transform="matrix(1 0 0 -1 0 367.011)"/>
    <polygon fill="#FFFFFF" fill-rule="nonzero" points="12.365 172.824 16.138 173.166 16.831 165.506 21.842 165.96 21.202 173.03 24.976 173.372 25.615 166.301 31.291 166.813 30.564 174.816 34.337 175.157 35.338 164.113 13.334 162.127" transform="matrix(1 0 0 -1 0 337.284)"/>
    <polygon fill="#FFFFFF" fill-rule="nonzero" points="34.608 150.654 34.45 147.607 12.385 148.744 12.543 151.791" transform="matrix(1 0 0 -1 0 299.398)"/>
    <polygon fill="#FFFFFF" fill-rule="nonzero" points="13.966 145.92 17.729 145.48 17.223 141.175 35.402 139.042 35.047 136.012 16.865 138.145 16.34 133.678 12.578 134.12" transform="matrix(1 0 0 -1 0 279.598)"/>
    <path fill="#FFFFFF" fill-rule="nonzero" d="M28.6630342,130.893602 L29.4549061,134.614414 L20.6546358,134.465545 L28.6630342,130.893602 Z M38.5026923,137.666214 L37.8534112,134.622485 L33.3138241,134.544464 L32.169511,129.172649 L36.280429,127.238257 L35.6329415,124.194528 L15.0980808,133.8342 L15.8307641,137.277901 L38.5026923,137.666214 Z" transform="matrix(1 0 0 -1 0 261.86)"/>
    <polygon fill="#FFFFFF" fill-rule="nonzero" points="18.942 121.819 36.338 116.131 38.552 122.878 42.153 121.703 38.988 112.053 17.99 118.918" transform="matrix(1 0 0 -1 0 234.931)"/>
    <polygon fill="#FFFFFF" fill-rule="nonzero" points="43.775 104.056 42.628 101.226 22.146 109.494 23.29 112.323" transform="matrix(1 0 0 -1 0 213.549)"/>
    <path fill="#FFFFFF" fill-rule="nonzero" d="M38.9263393,99.1085115 L40.6266666,102.51365 L32.066738,104.564625 L38.9263393,99.1085115 Z M50.1479618,103.211358 L48.758823,100.42501 L44.3438908,101.484127 L41.8911506,96.5669884 L45.3886594,93.6685401 L43.9977271,90.8830882 L26.5290158,105.340355 L28.1011011,108.4917 L50.1479618,103.211358 Z" transform="matrix(1 0 0 -1 0 199.375)"/>
    <polygon fill="#FFFFFF" fill-rule="nonzero" points="33.977 87.572 49.972 84.282 37.273 92.592 38.947 95.145 57.426 83.052 55.774 80.533 39.601 83.941 52.477 75.514 50.801 72.962 32.324 85.054" transform="matrix(1 0 0 -1 0 168.106)"/>
    <path fill="#FFFFFF" fill-rule="nonzero" d="M55.1150521,72.4033278 L57.5651018,75.3170217 L49.7261981,79.3122529 L55.1150521,72.4033278 Z M66.9868525,73.768253 L64.9825109,71.385463 L60.9379558,73.4463028 L57.4009879,69.2385307 L60.1209736,65.6038119 L58.1157353,63.2192284 L44.5247747,81.3623311 L46.7918779,84.0572065 L66.9868525,73.768253 Z" transform="matrix(1 0 0 -1 0 147.276)"/>
    <path fill="#FFFFFF" fill-rule="nonzero" d="M68.9042047,55.4249486 L71.5461691,57.597888 C72.2851299,58.2086069 71.9461406,59.4174894 71.6591655,60.0847065 C71.3766744,60.714258 70.6117065,61.9285214 69.7866531,62.5437242 C68.5957065,63.4441085 67.7966603,63.101532 67.2137421,62.6217455 L64.6820838,60.537589 L68.9042047,55.4249486 Z M59.9138135,61.5159947 L65.0076212,65.7076245 C65.8255002,66.3811191 67.5868097,67.8303433 70.6475784,65.7237668 C72.3963328,64.5346138 74.251806,62.0621441 74.8939128,60.5501442 C76.0436067,57.6543862 75.5799626,55.7836674 74.128048,54.8223009 L71.3138986,52.5067707 L76.3260978,46.4363509 L73.9675213,44.4947851 L59.9138135,61.5159947 Z" transform="matrix(1 0 0 -1 0 111.318)"/>
    <polygon fill="#FFFFFF" fill-rule="nonzero" points="80.98 58.657 83.059 55.496 76.62 51.275 79.38 47.076 85.326 50.973 87.404 47.811 81.459 43.915 84.586 39.16 91.314 43.569 93.395 40.408 84.109 34.322 71.985 52.762" transform="matrix(1 0 0 -1 0 92.98)"/>
    <path fill="#FFFFFF" fill-rule="nonzero" d="M95.0759735,45.0064785 C94.2975536,46.6144357 92.664486,47.6161581 90.7659665,46.7157738 C89.4288419,46.0664927 88.7930128,44.893482 89.5292832,43.2299234 C90.1480732,41.8461654 90.5937814,41.7340658 91.3722013,41.6892259 C91.9282155,41.3618949 94.7360874,42.0461512 95.3136247,42.1717028 C96.1359877,42.3537526 97.9439307,42.6640444 99.4272332,41.8237455 C102.165155,40.2310338 103.844856,35.2098666 103.008144,32.776856 C102.434194,31.1249557 101.028913,30.0685287 99.5734111,29.2919024 C98.915162,28.9206284 97.1404005,28.4569842 95.6221229,29.0076177 C93.7935536,29.6730411 92.2205714,31.3159735 91.1775963,33.1284005 L93.8267351,34.4798738 C94.0885998,33.9669058 94.6114326,33.2162866 95.4239308,32.7472617 C96.4911193,32.1347493 97.6237741,32.339219 98.5026353,32.856671 C99.396742,33.347219 100.042436,34.1857243 100.13929,34.8466638 C100.306094,35.9515179 99.6469484,37.5523007 98.4963577,38.1881299 C96.9359307,39.0912046 94.3235607,37.7576673 92.1757316,37.7495961 C90.3704789,37.7451121 88.4055964,38.6786779 86.9940377,41.9690266 C85.6111766,45.2064642 85.9501659,48.3013111 89.1804291,49.9487275 C89.8880021,50.3110335 92.3972404,51.4894249 94.9271052,49.7218378 C96.2920304,48.7532969 97.41213,47.0144073 97.6336389,46.3122151 L95.0759735,45.0064785 Z" transform="matrix(1 0 0 -1 0 79.424)"/>
    <path fill="#FFFFFF" fill-rule="nonzero" d="M115.555143,32.6824514 C116.323698,30.5785653 116.418759,27.8998323 115.826873,26.2891847 C115.368609,25.0175263 114.166004,23.4678609 112.480923,22.7387648 C109.444367,21.4393058 106.180026,23.5763734 103.795442,27.6603875 C103.280681,28.5661526 102.676239,29.8261526 102.164168,31.1874906 C101.642232,32.573939 101.205492,34.0267503 100.998332,35.2741951 C100.331115,39.4200883 100.851257,43.0736398 104.457279,44.4242162 C105.448239,44.7963871 106.906432,45.1479315 108.804951,44.2116753 C111.563499,42.9507786 112.660282,40.3240598 113.072809,39.2828783 L110.344752,38.2605296 C109.830887,39.3931843 108.086617,42.0674334 105.417748,40.7132697 C104.173891,40.0846149 103.685136,38.316131 103.886916,36.388914 C103.973905,35.5808997 104.293165,34.1505083 104.790887,32.6546507 C105.306545,31.1677611 105.998873,29.6171988 106.859798,28.4854408 C107.882147,27.1563875 108.851585,26.4846864 109.74031,26.2676615 C110.186915,26.1779818 110.591371,26.199505 110.992239,26.3501669 C111.385036,26.4640601 111.771556,26.7079889 112.108752,27.0281455 C113.783969,28.5921597 113.053976,30.7103945 112.826189,31.6601027 L115.555143,32.6824514 Z" transform="matrix(1 0 0 -1 0 67.17)"/>
    <path fill="#FFFFFF" fill-rule="nonzero" d="M121.880971,27.0080848 L125.581156,27.9192307 L121.608344,35.759928 L121.880971,27.0080848 Z M132.275746,21.1206116 L129.248159,20.3753732 L127.199874,24.4208251 L121.858551,23.1070173 L121.907875,18.5701206 L118.880287,17.8239854 L118.618423,40.4779777 L122.040601,41.3200702 L132.275746,21.1206116 Z" transform="matrix(1 0 0 -1 0 59.144)"/>
    <path fill="#FFFFFF" fill-rule="nonzero" d="M148.824254,30.2302738 C148.751613,32.0140033 147.650347,33.5816047 145.552738,33.5098609 C144.065848,33.4452915 143.015699,32.621135 143.029151,30.8033272 C143.0435,29.2886368 143.408496,29.0079393 144.105307,28.6581885 C144.484653,28.1362525 147.334674,27.6510853 147.914005,27.5353985 C148.739955,27.3748718 150.523685,26.9417188 151.548724,25.5821743 C153.427514,23.0334769 152.965663,17.7585161 151.228567,15.8599966 C150.043001,14.5721959 148.333706,14.1605661 146.68898,14.0260465 C145.937464,13.9480251 144.123243,14.2278258 142.950233,15.3353703 C141.537777,16.671598 140.749493,18.8041816 140.515429,20.8811637 L143.483827,21.0685943 C143.521493,20.495541 143.699955,19.5978471 144.25866,18.8436407 C144.99493,17.8616478 146.11503,17.5970927 147.126617,17.7217475 C148.142688,17.816808 149.06908,18.3297759 149.421521,18.8983453 C150.015201,19.8453631 150.047485,21.5761815 149.246645,22.6164662 C148.174076,24.0647936 145.24693,23.8782598 143.27308,24.7248363 C141.614005,25.43779 140.18182,27.0744447 140.199756,30.6535621 C140.222176,34.1734908 141.766461,36.878231 145.385037,37.107811 C146.178702,37.1571349 148.951599,37.2423306 150.567628,34.6156118 C151.433934,33.1852204 151.767542,31.1450069 151.691314,30.4123237 L148.824254,30.2302738 Z" transform="matrix(1 0 0 -1 0 51.137)"/>
    <path fill="#FFFFFF" fill-rule="nonzero" d="M158.232732,25.6302457 L161.652219,25.4975197 C162.609999,25.4589574 163.166013,26.588025 163.395593,27.2749716 C163.60365,27.9323239 163.845785,29.3474698 163.638625,30.354573 C163.35165,31.8190427 162.524803,32.0943594 161.7697,32.1239537 L158.4937,32.2521957 L158.232732,25.6302457 Z M155.587181,36.1514696 L162.184917,35.893192 C163.243138,35.8501458 165.525486,35.7604661 166.403451,32.1526512 C166.912831,30.1052634 166.649173,27.0265588 166.118269,25.4724094 C165.0457,22.5470571 163.452091,21.4592422 161.728447,21.7085518 L158.083864,21.8511426 L157.774469,13.9898189 L154.719978,14.1090929 L155.587181,36.1514696 Z" transform="matrix(1 0 0 -1 0 50.141)"/>
    <path fill="#FFFFFF" fill-rule="nonzero" d="M177.502481,20.4093502 C178.674595,21.5751864 179.525655,23.8620191 179.913072,26.2205956 C180.261029,28.5863464 180.145342,31.0229442 179.383961,32.4901043 C178.783107,33.654147 177.880929,34.2227164 176.914182,34.3724815 C175.948332,34.5231434 174.915221,34.2541043 173.987036,33.3259192 C172.815819,32.1618765 171.963862,29.8750439 171.577342,27.5164674 C171.229385,25.1516134 171.344175,22.7141188 172.105556,21.2478555 C172.70641,20.082916 173.608588,19.5134498 174.575335,19.3636847 C175.542082,19.2139196 176.574296,19.4829587 177.502481,20.4093502 M179.281727,17.4068734 C177.759862,15.715514 175.837129,15.1559126 173.96641,15.4473716 C172.092104,15.7370371 170.431236,16.8544463 169.495876,18.9287381 C168.457385,21.2639978 168.165029,24.6781045 168.6771,27.9666596 C169.188275,31.2552146 170.506567,34.4191149 172.207791,36.328396 C173.729655,38.0224458 175.652389,38.5802536 177.524004,38.2896913 C179.397413,37.9982323 181.058282,36.8835134 181.994538,34.8092217 C183.032132,32.4730652 183.325385,29.0607521 182.812417,25.7704034 C182.300346,22.4818483 180.982951,19.317948 179.281727,17.4068734" transform="matrix(1 0 0 -1 0 53.737)"/>
    <path fill="#FFFFFF" fill-rule="nonzero" d="M189.280835,32.4747807 L193.29759,31.3304676 C193.984536,31.1349658 195.52613,31.8604747 195.950315,34.0065102 C196.380778,35.519407 196.158372,36.5256134 194.846358,36.8995778 L190.868166,38.0322326 L189.280835,32.4747807 Z M188.967853,42.5072502 L196.904508,40.2464247 C198.309789,39.7522894 199.476522,38.3505955 199.232593,35.9346241 C199.162643,34.9472504 199.023639,33.3509515 198.147468,31.6174427 C197.270401,29.8848306 196.454315,29.3942826 195.252607,28.8239196 C195.601461,28.189884 196.39154,27.3980122 195.998742,25.4331297 C195.829248,24.5381261 195.069661,21.7338415 194.782686,20.6496138 C194.442799,19.4577704 194.601533,19.1286458 194.830216,18.7484039 L194.60781,17.9628096 L191.452878,18.8614003 C191.400864,19.5671796 191.46633,20.2415711 191.626856,20.9509376 C191.886031,22.010055 192.367611,23.698724 192.848294,25.2295567 C193.215981,26.6662257 192.709291,27.5648164 191.691426,27.8553787 L188.242344,28.8373716 L185.846999,20.4576992 L182.909988,21.2944109 L188.967853,42.5072502 Z" transform="matrix(1 0 0 -1 0 60.47)"/>
    <polygon fill="#FFFFFF" fill-rule="nonzero" points="214.551 41.086 213.116 37.586 209.099 39.227 202.164 22.313 199.335 23.469 206.269 40.384 202.1 42.087 203.537 45.587" transform="matrix(1 0 0 -1 0 67.9)"/>
    <polygon fill="#FFFFFF" fill-rule="nonzero" points="209.444 27.854 206.703 29.205 216.484 48.985 219.225 47.633" transform="matrix(1 0 0 -1 0 76.839)"/>
    <polygon fill="#FFFFFF" fill-rule="nonzero" points="232.551 46.721 216.968 30.297 214.706 31.633 221.624 53.176 224.273 51.612 218.607 35.621 229.901 48.286" transform="matrix(1 0 0 -1 0 83.472)"/>
    <path fill="#FFFFFF" fill-rule="nonzero" d="M229.301304,52.1505098 L232.362073,49.8843034 L235.881104,57.9393353 L229.301304,52.1505098 Z M231.38546,40.4006738 L228.879809,42.2543534 L230.697617,46.4101113 L226.274614,49.6807305 L222.806699,46.7491007 L220.301945,48.6018835 L237.614613,63.2474775 L240.447595,61.1507658 L231.38546,40.4006738 Z" transform="matrix(1 0 0 -1 0 103.648)"/>
    <polygon fill="#FFFFFF" fill-rule="nonzero" points="262.08 70.151 259.296 67.588 254.076 73.244 250.376 69.839 255.196 64.617 252.408 62.056 247.59 67.275 243.4 63.421 248.855 57.511 246.069 54.948 238.543 63.101 254.789 78.051" transform="matrix(1 0 0 -1 0 133)"/>
    <path fill="#FFFFFF" fill-rule="nonzero" d="M261.818989,90.4343309 L263.818846,87.1942029 L270.084768,93.3650639 L261.818989,90.4343309 Z M259.37701,78.7553419 L257.742149,81.4053774 L260.975999,84.5881104 L258.092796,89.2658042 L253.777409,87.8327224 L252.143444,90.4836547 L273.671956,97.6490638 L275.519358,94.6519678 L259.37701,78.7553419 Z" transform="matrix(1 0 0 -1 0 176.404)"/>
    <polygon fill="#FFFFFF" fill-rule="nonzero" points="283.664 92.436 280.266 90.769 278.353 94.658 261.922 86.601 260.575 89.338 277.005 97.398 275.017 101.434 278.418 103.1" transform="matrix(1 0 0 -1 0 189.702)"/>
    <polygon fill="#FFFFFF" fill-rule="nonzero" points="288.642 102.797 285.095 101.468 283.57 105.526 266.432 99.102 265.356 101.959 282.496 108.382 280.913 112.591 284.46 113.92" transform="matrix(1 0 0 -1 0 213.022)"/>
    <polygon fill="#FFFFFF" fill-rule="nonzero" points="268.904 112.282 268.023 115.205 289.181 121.558 290.061 118.635" transform="matrix(1 0 0 -1 0 233.84)"/>
    <polygon fill="#FFFFFF" fill-rule="nonzero" points="293.641 117.556 270.981 117.615 270.403 120.176 290.855 129.921 291.529 126.925 275.988 120.075 292.966 120.553" transform="matrix(1 0 0 -1 0 247.477)"/>
    <polygon fill="#FFFFFF" fill-rule="nonzero" points="272.531 132.257 272.069 135.274 293.909 138.602 294.373 135.584" transform="matrix(1 0 0 -1 0 270.86)"/>
    <polygon fill="#FFFFFF" fill-rule="nonzero" points="295.799 137.649 292.026 137.32 291.645 141.636 273.412 140.038 273.144 143.078 291.38 144.676 290.985 149.156 294.76 149.486" transform="matrix(1 0 0 -1 0 286.806)"/>
    <path fill="#FFFFFF" fill-rule="nonzero" d="M281.949573,158.311561 L282.006071,154.508244 L290.553445,156.61213 L281.949573,158.311561 Z M273.869431,149.521155 L273.821901,152.633938 L278.230555,153.718166 L278.14536,159.210151 L273.705317,160.180486 L273.65958,163.292372 L295.828405,158.462222 L295.88311,154.942294 L273.869431,149.521155 Z" transform="matrix(1 0 0 -1 0 312.814)"/>
    <path fill="#FFFFFF" fill-rule="nonzero" d="M295.484753,163.94237 L291.947785,164.162982 C291.040226,164.219481 289.294162,164.451751 288.226974,165.841787 C287.947173,166.246242 287.857493,166.762797 287.792924,167.17353 L289.183856,167.086541 C289.252013,166.694641 289.636739,166.059708 290.194547,165.740449 C290.685095,165.38173 291.407913,165.256178 291.77829,165.355723 L291.876938,166.91884 L295.655144,166.683879 L295.484753,163.94237 Z" transform="matrix(1 0 0 -1 0 331.116)"/>
    <path fill="#FFFFFF" fill-rule="nonzero" d="M285.939603,179.195328 C287.685667,178.809705 289.484642,179.473335 289.947389,181.518033 C290.265752,182.969947 289.734848,184.194075 287.971745,184.642474 C286.501895,185.016438 286.136001,184.733947 285.619446,184.151926 C285.016799,183.917862 283.820471,181.29204 283.56309,180.764723 C283.194507,180.006033 282.32282,178.391798 280.742663,177.750588 C277.794891,176.588339 272.803318,178.379243 271.408799,180.540524 C270.461781,182.012168 270.499447,183.766303 270.790009,185.389506 C270.903902,186.132951 271.638379,187.814445 273.012272,188.665506 C274.665069,189.687855 276.933069,189.905776 279.004671,189.601762 L278.42803,186.687171 C277.863048,186.797477 276.947418,186.853976 276.076628,186.507812 C274.935005,186.047755 274.395133,185.033477 274.257923,184.023684 C274.090222,183.020168 274.35119,181.994232 274.812144,181.508168 C275.578906,180.692979 277.245155,180.222161 278.456728,180.728851 C280.133738,181.395172 280.700514,184.269406 282.022393,185.959869 C283.137112,187.377705 285.087646,188.341762 288.548386,187.413577 C291.950834,186.496154 294.177581,184.314246 293.476286,180.761136 C293.322037,179.983613 292.696969,177.28515 289.742023,176.394631 C288.134065,175.923812 286.074122,176.119314 285.382692,176.382076 L285.939603,179.195328 Z" transform="matrix(1 0 0 -1 0 365.837)"/>
    <path fill="#FFFFFF" fill-rule="nonzero" d="M287.32076,190.131944 L272.781885,194.710093 C270.934483,195.293908 268.256647,196.479474 267.29259,199.363573 C266.991266,200.419104 267.027138,201.539203 267.34012,202.529267 C267.653102,203.519331 268.218981,204.406264 268.898753,205.046577 C271.574796,206.783673 274.248148,206.583687 276.326027,205.927232 L290.863109,201.346392 L289.945685,198.438079 L275.349415,203.035958 C274.007807,203.4162 271.870739,203.790164 271.121914,201.421723 C270.392817,199.114264 272.316447,198.05963 273.645501,197.639033 L288.242668,193.042947 L287.32076,190.131944 Z" transform="matrix(1 0 0 -1 0 396.535)"/>
    <path fill="#FFFFFF" fill-rule="nonzero" d="M276.192225,211.633779 L274.766318,208.481537 C274.230033,207.295075 274.610275,206.296939 276.212852,205.575018 C277.952638,204.791217 278.849435,205.301495 279.286175,206.267345 L280.778446,209.568455 L276.192225,211.633779 Z M267.54441,215.529466 L266.070076,212.266021 C265.695215,211.430206 265.180453,210.145993 267.940795,208.899445 C270.207001,207.88158 270.794403,208.886889 271.030261,209.407032 L272.738659,213.190619 L267.54441,215.529466 Z M285.488424,210.792583 L282.966631,205.212712 C280.877093,200.594206 276.313293,202.338477 275.484652,202.712441 C274.268595,203.259487 272.689336,204.326676 271.918987,205.860199 C270.646432,205.47368 268.511158,205.45395 266.106845,206.536384 C265.058489,207.007203 263.489991,207.960498 262.489165,209.861708 C261.72061,211.325281 262.207571,212.914405 262.593193,213.767259 L265.351741,219.867274 L285.488424,210.792583 Z" transform="matrix(1 0 0 -1 0 421.946)"/>
    <path fill="#FFFFFF" fill-rule="nonzero" d="M264.34123,224.165347 L262.36738,220.907283 L270.729116,218.164877 L264.34123,224.165347 Z M252.818284,220.996962 L254.434313,223.658656 L258.747907,222.241717 L261.596134,226.941831 L258.347038,230.116493 L259.96217,232.778186 L276.18254,216.935368 L274.358454,213.923924 L252.818284,220.996962 Z" transform="matrix(1 0 0 -1 0 446.702)"/>
    <path fill="#FFFFFF" fill-rule="nonzero" d="M250.237661,235.519595 C248.486216,236.918598 247.012778,239.160591 246.680963,240.842983 C246.411027,242.166655 246.632536,244.115395 247.696138,245.610356 C249.61618,248.29716 253.516351,248.161744 257.678386,245.902712 C258.590429,245.396918 259.758956,244.634641 260.904166,243.734257 C262.072692,242.82042 263.200863,241.807936 264.026813,240.847467 C266.751283,237.650385 268.206785,234.259595 265.828479,231.232905 C265.17292,230.40247 264.112009,229.346043 262.001845,229.163097 C258.988607,228.808862 256.684735,230.486769 255.788835,231.162058 L257.589604,233.450684 C258.61823,232.747595 261.500536,231.366527 263.076208,233.90805 C263.814272,235.090029 263.312963,236.854029 262.136365,238.397417 C261.64223,239.042214 260.625262,240.099538 259.424451,241.12099 C258.210187,242.123609 256.812977,243.091253 255.488408,243.611395 C253.9226,244.221217 252.746002,244.289374 251.872522,244.014954 C251.442956,243.858911 251.111141,243.631125 250.843896,243.29662 C250.568579,242.994399 250.364109,242.585459 250.243041,242.137958 C249.625148,239.931837 251.351483,238.500548 252.037533,237.807324 L250.237661,235.519595 Z" transform="matrix(1 0 0 -1 0 476.726)"/>
    <path fill="#FFFFFF" fill-rule="nonzero" d="M242.514175,253.550328 L243.137449,250.681474 L240.289221,251.196236 C240.846132,249.875254 241.88283,248.475353 243.080951,247.230599 C244.775,245.541033 246.803555,244.181489 248.434829,243.916934 C249.729804,243.702599 250.726146,244.085531 251.424751,244.770684 C252.120666,245.455837 252.51974,246.443211 252.328723,247.73998 C252.091071,249.373047 250.761121,251.419538 249.095769,253.138698 C247.401719,254.829161 245.374061,256.189602 243.740993,256.452364 C242.445121,256.668492 241.449677,256.282869 240.753762,255.598613 C240.330474,255.184293 240.017492,254.662357 239.916153,254.013076 L242.514175,253.550328 Z M233.932723,252.336962 L233.328282,255.182499 L236.250047,254.656079 C236.339727,256.188705 236.981833,257.454983 237.969207,258.426214 C239.319783,259.750784 241.208438,260.418001 243.434289,259.926556 C245.930972,259.366955 248.848253,257.565289 251.1871,255.192364 C253.52505,252.821232 255.281876,249.87615 255.802018,247.374983 C256.254004,245.144649 255.558089,243.27124 254.207513,241.945773 C252.856936,240.615823 250.967385,239.95309 248.743328,240.439154 C246.245748,241.002343 243.326673,242.804008 240.98962,245.176037 C238.990659,247.203695 237.414986,249.645674 236.673335,251.848207 L233.932723,252.336962 Z" transform="matrix(1 0 0 -1 0 500.368)"/>
    <path fill="#FFFFFF" fill-rule="nonzero" d="M235.97473,250.382045 L226.757449,262.506742 C225.586232,264.04744 224.084994,266.556678 224.969236,269.467682 C225.334232,270.504379 226.008624,271.397589 226.838161,272.025347 C227.665008,272.652208 228.640723,273.047696 229.566218,273.181318 C232.757022,273.053973 234.820552,271.350059 236.139741,269.614756 L245.356125,257.494543 L242.922217,255.648038 L233.668168,267.818472 C232.791997,268.902699 231.264752,270.43981 229.28283,268.938571 C227.352922,267.477689 228.312495,265.507425 229.155485,264.398087 L238.410431,252.229447 L235.97473,250.382045 Z" transform="matrix(1 0 0 -1 0 523.563)"/>
    <polygon fill="#FFFFFF" fill-rule="nonzero" points="222.519 256.918 220.597 260.177 227.235 264.079 224.682 268.407 218.554 264.806 216.633 268.065 222.761 271.667 219.871 276.568 212.934 272.493 211.012 275.751 220.582 281.376 231.79 262.368" transform="matrix(1 0 0 -1 0 538.294)"/>
    <polygon fill="#FFFFFF" fill-rule="nonzero" points="208.523 263.364 206.976 266.817 214.008 269.958 211.953 274.545 205.461 271.643 203.914 275.095 210.408 277.994 208.081 283.187 200.732 279.908 199.187 283.361 209.324 287.888 218.345 267.751" transform="matrix(1 0 0 -1 0 551.252)"/>
    <path stroke="#F0B600" d="M43.2036132,155.138064 C43.2036132,217.422419 92.6601814,266.887058 154.987582,266.887058 C217.314983,266.887058 264.924149,217.669935 264.924149,155.384684 C264.924149,93.0967422 217.167908,44.7961455 154.841404,44.7961455 C92.5149002,44.7961455 43.2036132,92.8528134 43.2036132,155.138064 Z" transform="matrix(1 0 0 -1 0 311.683)"/>
    <path stroke="#F0B600" d="M2.50355159,157.154745 C2.50355159,241.258173 70.7910659,309.436278 155.029014,309.436278 C239.269652,309.436278 307.555373,241.258173 307.555373,157.154745 C307.555373,73.0522132 239.269652,4.87590176 155.029014,4.87590176 C70.7910659,4.87590176 2.50355159,73.0522132 2.50355159,157.154745 Z" transform="matrix(1 0 0 -1 0 314.312)"/>
  </g>
</svg>
